<?xml version="1.0" encoding="UTF-8" standalone="no"?>
<!DOCTYPE svg PUBLIC "-//W3C//DTD SVG 1.1//EN" "http://www.w3.org/Graphics/SVG/1.1/DTD/svg11.dtd">
<svg width="100%" height="100%" viewBox="0 0 512 512" version="1.1" xmlns="http://www.w3.org/2000/svg" xmlns:xlink="http://www.w3.org/1999/xlink" xml:space="preserve" xmlns:serif="http://www.serif.com/" style="fill-rule:evenodd;clip-rule:evenodd;stroke-linejoin:round;stroke-miterlimit:2;">
    <g id="Layer1" transform="matrix(1,0,0,1,-206.222222,0)">
        <g transform="matrix(1,0,0,-1,0,512)">
            <g transform="matrix(1,0,0,-1,0,512)">
                <path d="M598.812,390.964C611.291,377.887 621.897,362.781 630.276,345.913C636.99,332.397 636.019,332 654.953,332L678.521,332C684.395,332 693.061,334.602 688.047,348.041C675.696,381.147 656.813,410.026 632.874,433.489C636.909,428.664 639.338,422.451 639.338,415.676C639.338,401.713 629.021,390.142 615.601,388.174C613.86,388.215 612.112,388.236 610.357,388.236C609.304,388.236 608.255,388.229 607.209,388.216C604.227,388.683 601.401,389.626 598.812,390.964Z" style="fill:rgb(76,70,213);"/>
            </g>
            <path d="M587.396,110.096C555.583,82.223 514.013,65.989 467.298,64.893C480.285,62.989 490.269,51.79 490.269,38.278C490.269,23.607 478.499,11.664 463.895,11.383C528.455,11.773 585.809,34.75 628.31,74.159C629.851,75.588 631.373,77.039 632.874,78.511C636.909,83.336 639.338,89.549 639.338,96.324C639.338,110.287 629.021,121.858 615.601,123.826C613.86,123.785 612.112,123.764 610.357,123.764C609.304,123.764 608.255,123.771 607.209,123.784C604.227,123.317 601.401,122.374 598.812,121.036C595.163,117.214 591.355,113.564 587.396,110.096Z" style="fill:rgb(70,123,213);"/>
            <path d="M459.176,64.853C405.485,65.538 361.351,84.406 327.201,121.255C324.962,123.671 312.114,129.476 304.603,121.966C300.419,117.782 296.484,114.169 288.489,106.506C284.236,102.43 280.319,92.751 289.014,83.497C333.648,35.991 391.958,11.378 462.222,11.378L463.094,11.379L463.895,11.383C478.499,11.664 490.269,23.607 490.269,38.278C490.269,51.79 480.285,62.989 467.298,64.893C465.612,64.853 463.921,64.833 462.222,64.833C461.203,64.833 460.188,64.84 459.176,64.853Z" style="fill:rgb(70,162,213);"/>
        </g>
        <g>
            <g transform="matrix(1,0,0,-1,0,512)">
                <path d="M598.812,390.964C601.401,389.626 604.227,388.683 607.209,388.216C608.255,388.229 609.304,388.236 610.357,388.236C612.112,388.236 613.86,388.215 615.601,388.174C629.021,390.142 639.338,401.713 639.338,415.676C639.338,422.451 636.909,428.664 632.874,433.489C656.813,410.026 675.696,381.147 688.047,348.041C693.061,334.602 684.395,332 678.521,332L654.953,332C636.019,332 636.99,332.397 630.276,345.913C621.897,362.781 611.291,377.887 598.812,390.964Z" style="fill:rgb(28,92,77);"/>
            </g>
            <path d="M587.396,110.096C555.583,82.223 514.013,65.989 467.298,64.893C480.285,62.989 490.269,51.79 490.269,38.278C490.269,23.607 478.499,11.664 463.895,11.383C528.455,11.773 585.809,34.75 628.31,74.159C629.851,75.588 631.373,77.039 632.874,78.511C636.909,83.336 639.338,89.549 639.338,96.324C639.338,110.287 629.021,121.858 615.601,123.826C613.86,123.785 612.112,123.764 610.357,123.764C609.304,123.764 608.255,123.771 607.209,123.784C604.227,123.317 601.401,122.374 598.812,121.036C595.163,117.214 591.355,113.564 587.396,110.096Z" style="fill:rgb(67,141,77);"/>
            <path d="M459.176,64.853C405.485,65.538 361.351,84.406 327.201,121.255C324.962,123.671 312.114,129.476 304.603,121.966C300.419,117.782 296.484,114.169 288.489,106.506C284.236,102.43 280.319,92.751 289.014,83.497C333.648,35.991 391.958,11.378 462.222,11.378L463.094,11.379L463.895,11.383C478.499,11.664 490.269,23.607 490.269,38.278C490.269,51.79 480.285,62.989 467.298,64.893C465.612,64.853 463.921,64.833 462.222,64.833C461.203,64.833 460.188,64.84 459.176,64.853Z" style="fill:rgb(117,168,73);"/>
        </g>
        <g transform="matrix(0.567301,0.001315,-0.001315,0.567301,202.077838,98.103043)">
            <path d="M17.853,302.026C15.966,302.075 14.145,299.639 14.137,297.751C14.109,290.886 14.137,278.793 14.137,278.793L65.729,203.284L96.992,203.284L96.992,280.33C96.992,280.33 103.804,280.337 107.137,280.33C110.989,280.323 111,284.347 111,284.347L111,298.21C111,298.21 111.069,301.855 107.732,301.855L96.992,301.855L96.992,322.399C96.992,322.399 97.392,326.455 93.645,326.455C88.591,326.455 77.683,326.508 72.63,326.455C68.948,326.417 69.317,322.627 69.317,322.627L69.317,302.026C69.317,302.026 26.052,301.813 17.853,302.026ZM66.583,238.305L39.079,280.501L70.683,280.501L70.683,241.893C70.683,237.679 70.763,237.884 70.763,230.981L69.317,234.034L66.583,238.305Z" style="fill-rule:nonzero;"/>
            <path d="M131.071,326.455C125.339,326.455 121.933,322.798 121.933,317.066L121.933,212.276C121.933,206.112 125.627,203.284 131.791,203.284L161.908,203.284C180.131,203.284 194.31,205.79 204.446,210.801C214.126,215.47 221.529,222.588 226.654,232.155C231.779,241.722 234.342,252.94 234.342,265.809C234.342,288.701 225.971,305.613 209.229,316.547C198.751,323.152 183.661,326.455 163.958,326.455L131.071,326.455ZM151.487,225.834L151.487,304.076L164.642,304.247C176.6,304.247 186.11,300.745 193.171,293.741C200.232,286.736 203.762,277.198 203.762,265.126C203.762,239.159 190.722,226.176 164.642,226.176L151.487,225.834Z" style="fill-rule:nonzero;"/>
            <path d="M250.391,326.455C248.675,326.455 246.642,324.644 246.642,322.928L246.642,236.966C246.642,235.248 248.758,233.522 250.476,233.522L271.71,233.522C273.337,233.522 275.171,235.338 275.171,236.966C275.171,251.88 275.342,307.749 275.342,323.006C275.342,324.512 273.559,326.455 272.052,326.455L250.391,326.455ZM260.821,192.554C268.835,192.554 275.342,198.885 275.342,206.684C275.342,214.482 268.835,220.813 260.821,220.813C252.807,220.813 246.3,214.482 246.3,206.684C246.3,198.885 252.807,192.554 260.821,192.554Z"/>
            <path d="M346.75,267.859L346.75,266.834C346.75,256.129 339.86,250.776 326.079,250.776C320.902,250.776 314.637,251.865 307.282,254.043C305.738,254.5 303.332,255.691 300.86,250.809C299.694,248.508 298.381,244.157 297.756,241.844C296.681,237.861 300.299,236.446 300.299,236.446L303.358,235.401C307.572,234.148 311.871,233.18 316.256,232.497C320.641,231.813 325.111,231.472 329.667,231.472C358.708,231.472 373.229,244.227 373.229,269.738L373.229,322.331C373.229,322.331 373.444,326.455 368.972,326.455C364.5,326.455 358.783,326.454 352.383,326.455C348.455,326.456 348.522,322.127 348.522,322.127L348.629,314.838C340.543,323.722 330.692,328.163 319.075,328.163C309.85,328.163 302.106,325.402 295.842,319.878C289.578,314.354 286.446,307.322 286.446,298.78C286.446,288.758 290.603,281.042 298.917,275.632C307.231,270.222 319.189,267.518 334.792,267.518L340.942,267.518C342.878,267.518 344.814,267.631 346.75,267.859ZM346.408,291.605L346.408,284.601L339.917,284.43C322.492,284.43 313.779,288.986 313.779,298.097C313.779,301.058 314.975,303.677 317.367,305.955C319.872,307.891 323.061,308.859 326.933,308.859C332.514,308.859 337.155,307.208 340.856,303.905C344.558,300.602 346.408,296.502 346.408,291.605Z" style="fill-rule:nonzero;"/>
            <path d="M455.742,245.993C455.742,245.993 455.754,241.004 455.742,236.931C455.737,235.259 455.752,233.524 459.417,233.522C464.162,233.518 473.479,233.522 478.223,233.522C481.78,233.522 481.532,235.273 481.537,236.835C481.594,252.525 481.537,315.693 481.537,315.693C481.537,330.498 477.124,342.001 468.298,350.201C459.471,358.401 447.314,362.501 431.825,362.501C426.7,362.501 421.746,362.159 416.962,361.476C412.179,360.793 407.282,359.654 402.271,358.059C400.79,357.718 399.338,357.291 397.915,356.778C397.469,356.618 392.134,355.413 394.253,349.796C395.296,347.032 397.459,341.557 398.753,339.072C401.2,334.373 403.574,336.432 405.135,336.982C413.01,339.759 420.369,341.147 427.212,341.147C435.299,341.147 441.79,339.268 446.687,335.509C451.585,331.751 454.033,326.683 454.033,320.305L454.033,314.668C446.517,323.209 437.121,327.48 425.846,327.48C413.66,327.48 403.865,323.181 396.462,314.582C389.06,305.984 385.358,294.338 385.358,279.647C385.358,265.638 389.06,254.107 396.462,245.053C403.865,235.999 413.375,231.472 424.992,231.472C436.836,231.472 447.086,236.312 455.742,245.993ZM413.546,279.134L413.546,280.672C413.546,288.302 415.34,294.253 418.927,298.524C422.515,302.795 427.326,304.93 433.362,304.93C439.626,304.93 444.552,302.681 448.14,298.182C451.727,293.684 453.521,287.391 453.521,279.305C453.521,271.333 451.699,265.183 448.054,260.855C444.637,256.413 439.683,254.193 433.192,254.193C427.156,254.193 422.372,256.47 418.842,261.026C415.311,265.581 413.546,271.618 413.546,279.134Z" style="fill-rule:nonzero;"/>
            <path d="M502.146,326.455C502.146,326.455 497.054,326.607 497.083,321.177C497.139,310.861 497.083,255.96 497.083,240.624C497.083,234.572 497.746,233.555 503.798,233.522C507.244,233.503 513.117,233.519 516.502,233.522C522.45,233.527 522.879,234.403 522.879,240.477L522.879,247.359C532.104,236.768 542.297,231.472 553.458,231.472C563.936,231.472 572.421,234.86 578.912,241.636C585.404,248.413 588.65,257.381 588.65,268.543C588.65,268.543 588.647,310.737 588.65,321.387C588.651,326.691 583.917,326.455 583.917,326.455L565.892,326.455C565.892,326.455 560.12,326.944 560.121,321.392C560.122,312.081 560.121,276.572 560.121,276.572L560.121,273.155C560.121,271.675 559.95,269.625 559.608,267.005C559.267,264.386 557.701,261.823 554.91,259.318C552.12,256.812 548.789,255.559 544.917,255.559C538.311,255.559 533.015,258.236 529.029,263.588C526.637,266.663 525.442,271.902 525.442,279.305L525.442,320.551C525.442,320.551 525.866,326.455 520.254,326.455C515.499,326.455 502.146,326.455 502.146,326.455Z" style="fill-rule:nonzero;"/>
            <path d="M600.95,280.159C600.95,265.809 605.591,254.107 614.873,245.053C624.155,235.999 636.369,231.472 651.517,231.472C666.664,231.472 678.85,235.97 688.075,244.968C697.3,253.965 701.912,265.638 701.912,279.988C701.912,294.338 697.271,305.955 687.99,314.838C678.708,323.722 666.55,328.163 651.517,328.163C636.597,328.163 624.44,323.722 615.044,314.838C605.648,305.955 600.95,294.395 600.95,280.159ZM651.346,252.313C645.31,252.313 640.327,254.847 636.398,259.916C632.469,264.984 630.504,271.675 630.504,279.988C630.504,288.188 632.412,294.794 636.227,299.805C640.042,304.816 645.082,307.322 651.346,307.322C657.496,307.322 662.535,304.788 666.465,299.72C670.394,294.652 672.358,288.075 672.358,279.988C672.358,271.675 670.451,264.984 666.635,259.916C662.82,254.847 657.724,252.313 651.346,252.313Z" style="fill-rule:nonzero;"/>
            <path d="M712.069,323.372C706.641,321.864 708.826,317.738 708.826,317.738L712.277,307.097C712.277,307.097 713.16,302.915 718.814,304.427C726.243,306.414 732.713,307.834 738.471,307.834C742.912,307.834 746.528,306.98 749.319,305.272C752.109,303.563 753.504,301.456 753.504,298.951C753.504,295.534 750.087,292.801 743.254,290.751L729.587,286.138C715.921,281.013 709.087,272.472 709.087,260.513C709.087,251.858 712.561,244.825 719.508,239.416C726.456,234.006 735.681,231.301 747.183,231.301C754.422,231.301 766.731,234.01 771.293,235.586C776.295,237.313 774.402,241.195 774.402,241.195C774.402,241.195 772.625,246.835 771.454,250.384C770.399,253.585 768.127,254.288 764.78,253.891C758.663,253.166 754.409,251.288 749.404,251.288C740.749,251.288 736.421,254.022 736.421,259.488C736.421,261.538 737.731,263.304 740.35,264.784L743.425,265.809L746.158,266.834L751.625,268.543L759.142,271.105C774.175,276.23 781.692,284.943 781.692,297.243C781.692,306.809 778.019,314.383 770.673,319.963C763.327,325.544 753.39,328.334 740.862,328.334C737.901,328.334 734.883,328.163 731.808,327.822C728.733,327.48 725.288,326.911 721.473,326.113C718.757,325.546 715.701,324.381 712.069,323.372Z" style="fill-rule:nonzero;"/>
            <g transform="matrix(1,0,0,1,122.682089,0)">
                <path d="M712.069,323.372C706.641,321.864 708.826,317.738 708.826,317.738L712.277,307.097C712.277,307.097 713.16,302.915 718.814,304.427C726.243,306.414 732.713,307.834 738.471,307.834C742.912,307.834 746.528,306.98 749.319,305.272C752.109,303.563 753.504,301.456 753.504,298.951C753.504,295.534 750.087,292.801 743.254,290.751L729.587,286.138C715.921,281.013 709.087,272.472 709.087,260.513C709.087,251.858 712.561,244.825 719.508,239.416C726.456,234.006 735.681,231.301 747.183,231.301C754.422,231.301 766.731,234.01 771.293,235.586C776.295,237.313 774.402,241.195 774.402,241.195C774.402,241.195 772.625,246.835 771.454,250.384C770.399,253.585 768.127,254.288 764.78,253.891C758.663,253.166 754.409,251.288 749.404,251.288C740.749,251.288 736.421,254.022 736.421,259.488C736.421,261.538 737.731,263.304 740.35,264.784L743.425,265.809L746.158,266.834L751.625,268.543L759.142,271.105C774.175,276.23 781.692,284.943 781.692,297.243C781.692,306.809 778.019,314.383 770.673,319.963C763.327,325.544 753.39,328.334 740.862,328.334C737.901,328.334 734.883,328.163 731.808,327.822C728.733,327.48 725.288,326.911 721.473,326.113C718.757,325.546 715.701,324.381 712.069,323.372Z" style="fill-rule:nonzero;"/>
            </g>
            <g transform="matrix(1,0,0,1,545.983333,0)">
                <path d="M250.391,326.455C248.675,326.455 246.642,324.644 246.642,322.928L246.642,236.966C246.642,235.248 248.758,233.522 250.476,233.522L271.71,233.522C273.337,233.522 275.171,235.338 275.171,236.966C275.171,251.88 275.342,307.749 275.342,323.006C275.342,324.512 273.559,326.455 272.052,326.455L250.391,326.455ZM260.821,192.554C268.835,192.554 275.342,198.885 275.342,206.684C275.342,214.482 268.835,220.813 260.821,220.813C252.807,220.813 246.3,214.482 246.3,206.684C246.3,198.885 252.807,192.554 260.821,192.554Z"/>
            </g>
        </g>
    </g>
</svg>
