<?xml version="1.0" encoding="UTF-8" standalone="no"?>
<!DOCTYPE svg PUBLIC "-//W3C//DTD SVG 1.1//EN" "http://www.w3.org/Graphics/SVG/1.1/DTD/svg11.dtd">
<svg width="100%" height="100%" viewBox="0 0 512 512" version="1.1" xmlns="http://www.w3.org/2000/svg" xmlns:xlink="http://www.w3.org/1999/xlink" xml:space="preserve" xmlns:serif="http://www.serif.com/" style="fill-rule:evenodd;clip-rule:evenodd;stroke-linejoin:round;stroke-miterlimit:2;">
    <g transform="matrix(0.991073,0,0,0.991073,-1.539453,15.286336)">
        <path d="M172.519,244.669L186.373,244.669L216.536,150.314C218.065,145.531 222.558,142.325 227.577,142.435C232.597,142.545 236.945,145.944 238.263,150.789L263.807,244.669L289.803,244.669L297.727,217.838C299.102,213.181 303.291,209.918 308.143,209.725C312.995,209.532 317.431,212.452 319.172,216.984L329.806,244.669L352.439,244.669C356.517,244.669 360.28,246.859 362.293,250.404C364.306,253.95 364.26,258.304 362.171,261.805L343.666,292.826C341.443,296.551 337.289,298.681 332.966,298.31C328.644,297.94 324.912,295.133 323.357,291.083L314.233,267.331L306.74,267.331L286.694,335.209C285.258,340.069 280.771,343.385 275.704,343.331C270.637,343.276 266.222,339.864 264.892,334.975L246.487,267.331L202.921,267.331L191.614,302.704C190.143,307.303 185.92,310.466 181.093,310.582C176.266,310.698 171.896,307.743 170.206,303.22L156.794,267.331L142.133,267.331C138.105,267.331 134.381,265.194 132.349,261.716C130.317,258.239 130.284,253.945 132.261,250.436L145.805,226.406C147.97,222.567 152.164,220.33 156.558,220.673C160.952,221.016 164.749,223.875 166.291,228.004L172.519,244.669Z" style="fill:rgb(2,24,55);"/>
    </g>
    <g transform="matrix(0.898427,0,0,-0.898427,-172.581799,485.997262)">
        <g transform="matrix(1,0,0,-1,0,512)">
            <path d="M598.812,390.964C611.291,377.887 621.897,362.781 630.276,345.913C636.99,332.397 636.019,332 654.953,332L678.521,332C684.395,332 693.061,334.602 688.047,348.041C675.696,381.147 656.813,410.026 632.874,433.489C636.909,428.664 639.338,422.451 639.338,415.676C639.338,401.713 629.021,390.142 615.601,388.174C613.86,388.215 612.112,388.236 610.357,388.236C609.304,388.236 608.255,388.229 607.209,388.216C604.227,388.683 601.401,389.626 598.812,390.964Z" style="fill:rgb(71,65,223);"/>
        </g>
        <path d="M587.396,110.096C555.583,82.223 514.013,65.989 467.298,64.893C480.285,62.989 490.269,51.79 490.269,38.278C490.269,23.607 478.499,11.664 463.895,11.383C528.455,11.773 585.809,34.75 628.31,74.159C629.851,75.588 631.373,77.039 632.874,78.511C636.909,83.336 639.338,89.549 639.338,96.324C639.338,110.287 629.021,121.858 615.601,123.826C613.86,123.785 612.112,123.764 610.357,123.764C609.304,123.764 608.255,123.771 607.209,123.784C604.227,123.317 601.401,122.374 598.812,121.036C595.163,117.214 591.355,113.564 587.396,110.096Z" style="fill:rgb(4,124,238);"/>
        <path d="M459.176,64.853C405.485,65.538 361.351,84.406 327.201,121.255C324.962,123.671 312.114,129.476 304.603,121.966C300.419,117.782 296.484,114.169 288.489,106.506C284.236,102.43 280.319,92.751 289.014,83.497C333.648,35.991 391.958,11.378 462.222,11.378L463.094,11.379L463.895,11.383C478.499,11.664 490.269,23.607 490.269,38.278C490.269,51.79 480.285,62.989 467.298,64.893C465.612,64.853 463.921,64.833 462.222,64.833C461.203,64.833 460.188,64.84 459.176,64.853Z" style="fill:rgb(17,198,251);"/>
    </g>
    <g transform="matrix(0.898427,0,0,0.898427,-172.581799,26.002738)">
        <g transform="matrix(1,0,0,-1,0,512)">
            <path d="M598.812,390.964C601.401,389.626 604.227,388.683 607.209,388.216C608.255,388.229 609.304,388.236 610.357,388.236C612.112,388.236 613.86,388.215 615.601,388.174C629.021,390.142 639.338,401.713 639.338,415.676C639.338,422.451 636.909,428.664 632.874,433.489C656.813,410.026 675.696,381.147 688.047,348.041C693.061,334.602 684.395,332 678.521,332L654.953,332C636.019,332 636.99,332.397 630.276,345.913C621.897,362.781 611.291,377.887 598.812,390.964Z" style="fill:rgb(28,92,77);"/>
        </g>
        <path d="M587.396,110.096C555.583,82.223 514.013,65.989 467.298,64.893C480.285,62.989 490.269,51.79 490.269,38.278C490.269,23.607 478.499,11.664 463.895,11.383C528.455,11.773 585.809,34.75 628.31,74.159C629.851,75.588 631.373,77.039 632.874,78.511C636.909,83.336 639.338,89.549 639.338,96.324C639.338,110.287 629.021,121.858 615.601,123.826C613.86,123.785 612.112,123.764 610.357,123.764C609.304,123.764 608.255,123.771 607.209,123.784C604.227,123.317 601.401,122.374 598.812,121.036C595.163,117.214 591.355,113.564 587.396,110.096Z" style="fill:rgb(67,141,77);"/>
        <path d="M459.176,64.853C405.485,65.538 361.351,84.406 327.201,121.255C324.962,123.671 312.114,129.476 304.603,121.966C300.419,117.782 296.484,114.169 288.489,106.506C284.236,102.43 280.319,92.751 289.014,83.497C333.648,35.991 391.958,11.378 462.222,11.378L463.094,11.379L463.895,11.383C478.499,11.664 490.269,23.607 490.269,38.278C490.269,51.79 480.285,62.989 467.298,64.893C465.612,64.853 463.921,64.833 462.222,64.833C461.203,64.833 460.188,64.84 459.176,64.853Z" style="fill:rgb(117,168,73);"/>
    </g>
    <g transform="matrix(0.651866,0,0,-0.651866,-59.293334,422.877737)">
        <g transform="matrix(1,0,0,-1,0,512)">
            <path d="M598.812,390.964C611.291,377.887 621.897,362.781 630.276,345.913C636.99,332.397 636.019,332 654.953,332L678.521,332C684.395,332 693.061,334.602 688.047,348.041C675.696,381.147 656.813,410.026 632.874,433.489C636.909,428.664 639.338,422.451 639.338,415.676C639.338,401.713 629.021,390.142 615.601,388.174C613.86,388.215 612.112,388.236 610.357,388.236C609.304,388.236 608.255,388.229 607.209,388.216C604.227,388.683 601.401,389.626 598.812,390.964Z" style="fill:rgb(71,65,223);"/>
        </g>
        <path d="M587.396,110.096C555.583,82.223 514.013,65.989 467.298,64.893C480.285,62.989 490.269,51.79 490.269,38.278C490.269,23.607 478.499,11.664 463.895,11.383C528.455,11.773 585.809,34.75 628.31,74.159C629.851,75.588 631.373,77.039 632.874,78.511C636.909,83.336 639.338,89.549 639.338,96.324C639.338,110.287 629.021,121.858 615.601,123.826C613.86,123.785 612.112,123.764 610.357,123.764C609.304,123.764 608.255,123.771 607.209,123.784C604.227,123.317 601.401,122.374 598.812,121.036C595.163,117.214 591.355,113.564 587.396,110.096Z" style="fill:rgb(4,124,238);"/>
        <path d="M459.176,64.853C405.485,65.538 361.351,84.406 327.201,121.255C324.962,123.671 312.114,129.476 304.603,121.966C300.419,117.782 296.484,114.169 288.489,106.506C284.236,102.43 280.319,92.751 289.014,83.497C333.648,35.991 391.958,11.378 462.222,11.378L463.094,11.379L463.895,11.383C478.499,11.664 490.269,23.607 490.269,38.278C490.269,51.79 480.285,62.989 467.298,64.893C465.612,64.853 463.921,64.833 462.222,64.833C461.203,64.833 460.188,64.84 459.176,64.853Z" style="fill:rgb(17,198,251);"/>
    </g>
    <g transform="matrix(0.651866,0,-0,0.651866,-59.293334,89.122263)">
        <g transform="matrix(1,0,0,-1,0,512)">
            <path d="M598.812,390.964C601.401,389.626 604.227,388.683 607.209,388.216C608.255,388.229 609.304,388.236 610.357,388.236C612.112,388.236 613.86,388.215 615.601,388.174C629.021,390.142 639.338,401.713 639.338,415.676C639.338,422.451 636.909,428.664 632.874,433.489C656.813,410.026 675.696,381.147 688.047,348.041C693.061,334.602 684.395,332 678.521,332L654.953,332C636.019,332 636.99,332.397 630.276,345.913C621.897,362.781 611.291,377.887 598.812,390.964Z" style="fill:rgb(28,92,77);"/>
        </g>
        <path d="M587.396,110.096C555.583,82.223 514.013,65.989 467.298,64.893C480.285,62.989 490.269,51.79 490.269,38.278C490.269,23.607 478.499,11.664 463.895,11.383C528.455,11.773 585.809,34.75 628.31,74.159C629.851,75.588 631.373,77.039 632.874,78.511C636.909,83.336 639.338,89.549 639.338,96.324C639.338,110.287 629.021,121.858 615.601,123.826C613.86,123.785 612.112,123.764 610.357,123.764C609.304,123.764 608.255,123.771 607.209,123.784C604.227,123.317 601.401,122.374 598.812,121.036C595.163,117.214 591.355,113.564 587.396,110.096Z" style="fill:rgb(67,141,77);"/>
        <path d="M459.176,64.853C405.485,65.538 361.351,84.406 327.201,121.255C324.962,123.671 312.114,129.476 304.603,121.966C300.419,117.782 296.484,114.169 288.489,106.506C284.236,102.43 280.319,92.751 289.014,83.497C333.648,35.991 391.958,11.378 462.222,11.378L463.094,11.379L463.895,11.383C478.499,11.664 490.269,23.607 490.269,38.278C490.269,51.79 480.285,62.989 467.298,64.893C465.612,64.853 463.921,64.833 462.222,64.833C461.203,64.833 460.188,64.84 459.176,64.853Z" style="fill:rgb(117,168,73);"/>
    </g>
</svg>
